<svg version="1.1" id="Layer_1" xmlns="http://www.w3.org/2000/svg" xmlns:xlink="http://www.w3.org/1999/xlink" x="0px" y="0px"
	 width="100%" viewBox="0 0 1197 182" enable-background="new 0 0 1197 182" xml:space="preserve">
<path fill="#FFFEFE" opacity="1.000000" stroke="none" 
	d="
M899.000000,183.000000 
	C599.333313,183.000000 300.166656,183.000000 1.000000,183.000000 
	C1.000000,122.333336 1.000000,61.666668 1.000000,1.000000 
	C400.000000,1.000000 799.000000,1.000000 1198.000000,1.000000 
	C1198.000000,61.666668 1198.000000,122.333336 1198.000000,183.000000 
	C1098.500000,183.000000 999.000000,183.000000 899.000000,183.000000 
M226.063568,144.644821 
	C227.716156,144.444763 229.386337,143.985260 231.017838,144.095978 
	C235.018295,144.367477 236.658813,142.983307 237.400955,138.698059 
	C240.690079,119.705658 244.467636,100.797516 248.105637,81.866035 
	C249.744858,73.335854 251.471008,64.822388 253.157715,56.301334 
	C253.474731,56.350803 253.791733,56.400272 254.108749,56.449745 
	C254.108749,84.850800 254.108749,113.251862 254.108749,141.992203 
	C261.506042,141.309570 268.564484,140.658203 276.338715,139.940796 
	C276.338715,100.178352 276.338715,60.653362 276.338715,21.216703 
	C265.310852,21.216703 254.227554,21.216703 243.061935,21.216703 
	C238.045609,49.928719 233.078400,78.359657 228.111191,106.790604 
	C227.783386,106.770058 227.455597,106.749512 227.127792,106.728966 
	C222.486328,78.224777 217.844879,49.720589 213.210831,21.261906 
	C201.824310,21.261906 190.888062,21.261906 179.476181,21.261906 
	C179.476181,63.935406 179.476181,106.344780 179.476181,149.211639 
	C186.019043,148.527771 192.529449,147.847290 199.779022,147.089554 
	C199.779022,116.022812 199.779022,85.478134 199.779022,54.933449 
	C200.124496,54.922493 200.469986,54.911537 200.815460,54.900581 
	C206.111404,84.943581 211.407349,114.986588 216.747192,145.278564 
	C219.882187,145.075027 222.518631,144.903870 226.063568,144.644821 
M890.020813,72.469223 
	C888.311646,82.261894 886.602539,92.054565 884.893372,101.847237 
	C884.542725,101.873154 884.192078,101.899078 883.841431,101.924995 
	C878.815247,74.960144 873.789062,47.995296 868.782104,21.133581 
	C857.320068,21.133581 846.412964,21.133581 835.856750,21.133581 
	C835.856750,59.012348 835.856750,96.551247 835.856750,134.383759 
	C842.881226,134.856262 849.292480,135.287521 856.109375,135.746078 
	C856.109375,107.510506 856.109375,79.594482 856.109375,51.678467 
	C857.238098,53.504848 857.649597,55.404938 858.027222,57.311726 
	C863.063843,82.744156 868.075562,108.181580 873.189331,133.598465 
	C873.441650,134.852356 874.460999,136.836395 875.314758,136.942795 
	C881.337402,137.693146 887.410278,138.040634 893.514221,138.520432 
	C898.896301,109.709755 904.132751,81.679123 909.369141,53.648487 
	C909.797791,53.674961 910.226379,53.701431 910.655029,53.727901 
	C910.655029,82.439018 910.655029,111.150139 910.655029,139.945358 
	C918.521973,140.637558 925.565369,141.257294 932.364990,141.855576 
	C932.364990,101.344978 932.364990,61.302162 932.364990,21.086910 
	C920.943420,21.086910 910.159241,21.086910 898.945618,21.086910 
	C895.996399,37.956047 893.054688,54.782299 890.020813,72.469223 
M1128.552368,140.227173 
	C1128.840088,138.629044 1129.127930,137.030930 1129.448364,135.251495 
	C1138.435181,136.235580 1147.130249,137.187714 1155.684814,138.124466 
	C1157.180298,148.144821 1158.593628,157.614517 1160.003662,167.062378 
	C1167.939453,168.163727 1175.281006,169.182632 1183.339233,170.300995 
	C1175.168701,120.139809 1167.117798,70.713478 1159.073120,21.325029 
	C1148.185547,21.325029 1137.903564,21.325029 1127.250122,21.325029 
	C1119.298706,67.403160 1111.371094,113.343498 1103.366211,159.731689 
	C1110.867920,160.642715 1117.866943,161.492691 1125.113647,162.372742 
	C1126.249878,154.836197 1127.289429,147.940399 1128.552368,140.227173 
M162.602722,120.031639 
	C162.602722,87.112267 162.602722,54.192890 162.602722,21.386652 
	C155.204880,21.386652 148.000854,21.386652 140.117111,21.386652 
	C140.117111,45.593433 140.132416,69.410576 140.110168,93.227684 
	C140.100204,103.890976 140.189911,114.558853 139.906586,125.215927 
	C139.693649,133.225235 134.289566,137.932098 126.170647,137.788467 
	C119.594978,137.672134 116.519455,133.905380 116.215691,125.568825 
	C116.173248,124.403946 116.198563,123.236244 116.206543,122.069939 
	C116.396828,94.251717 116.595680,66.433548 116.775520,38.615253 
	C116.812820,32.845642 116.780922,27.075586 116.780922,21.399176 
	C108.513931,21.399176 100.944008,21.399176 93.066147,21.399176 
	C93.066147,58.387806 92.788872,95.026283 93.235695,131.655930 
	C93.369133,142.594986 98.297821,151.765305 109.556374,155.620209 
	C135.386337,164.464386 160.515869,147.922089 162.602722,120.031639 
M400.088593,67.504440 
	C400.088593,62.431305 400.088593,57.358173 400.088593,52.285038 
	C400.360565,52.229343 400.632568,52.173649 400.904541,52.117954 
	C410.052063,77.997437 419.199585,103.876915 428.365234,129.807693 
	C436.509766,129.415283 444.269989,129.041397 452.506165,128.644577 
	C452.506165,92.605850 452.506165,56.888130 452.506165,21.145720 
	C445.769531,21.145720 439.056030,21.145720 431.830231,21.145720 
	C431.830231,42.311050 431.830231,63.132267 431.830231,83.953484 
	C430.243195,82.284782 429.545349,80.479782 428.909790,78.653099 
	C422.635925,60.620426 416.409363,42.571056 410.035614,24.573803 
	C409.526489,23.136183 408.055389,21.003313 406.973267,20.967888 
	C398.045166,20.675606 389.103394,20.802639 379.544678,20.802639 
	C379.544678,58.270439 379.544678,95.163887 379.544678,132.392136 
	C386.229919,132.035187 392.984314,131.674561 400.088593,131.295242 
	C400.088593,110.081696 400.088593,89.292244 400.088593,67.504440 
M39.238861,102.249550 
	C42.679836,105.385574 46.362591,108.297958 49.512402,111.703300 
	C56.472500,119.228073 58.625114,128.186539 55.980141,138.070190 
	C54.343506,144.185928 48.186386,147.737717 41.535526,146.929962 
	C36.108414,146.270828 33.212914,142.400787 33.007488,135.324554 
	C32.902279,131.700531 32.989037,128.070953 32.989037,124.131104 
	C25.373407,124.925873 18.335316,125.660370 10.646644,126.462761 
	C10.990103,132.722382 10.755739,138.752258 11.745991,144.573807 
	C14.758302,162.282806 25.982811,170.189133 43.808151,167.706619 
	C45.455215,167.477219 47.107887,167.251297 48.732822,166.905594 
	C63.692635,163.722916 74.967026,155.911072 78.716927,140.462814 
	C83.253571,121.773384 79.342346,105.119614 64.354111,92.005447 
	C57.473446,85.985100 50.313927,80.265366 43.674469,73.992691 
	C37.488335,68.148300 34.337875,60.810291 34.869633,52.045330 
	C35.342499,44.251019 39.238152,40.004421 46.452351,39.893291 
	C53.648224,39.782444 57.572620,43.829865 57.971165,51.937550 
	C58.114700,54.857582 57.994205,57.790592 57.994205,61.098042 
	C65.812691,60.689411 72.862061,60.320976 80.086372,59.943401 
	C80.086372,56.731575 80.130142,54.080379 80.079346,51.431000 
	C79.721046,32.743435 70.340210,22.088865 51.879967,19.373035 
	C33.391113,16.652994 17.937302,25.048269 13.432109,41.020790 
	C8.322712,59.135433 11.463333,75.680893 24.986237,89.445580 
	C29.287500,93.823746 34.116257,97.683678 39.238861,102.249550 
M953.418335,94.896507 
	C950.387268,110.789612 947.356201,126.682709 944.275085,142.838226 
	C951.748535,143.556137 958.657043,144.219772 965.959839,144.921280 
	C967.431519,136.892700 968.856201,129.120712 970.354004,120.949966 
	C979.319641,121.686073 988.038086,122.401886 996.934631,123.132317 
	C998.095520,130.409912 999.301025,137.433868 1000.300293,144.487045 
	C1000.713013,147.400162 1001.966919,148.706772 1005.021545,148.889801 
	C1011.269897,149.264236 1017.496643,150.000427 1024.520142,150.661819 
	C1016.211365,107.195877 1007.998413,64.230797 999.766418,21.166374 
	C988.992126,21.166374 978.550171,21.166374 967.719055,21.166374 
	C963.016052,45.526207 958.330139,69.797676 953.418335,94.896507 
M620.088806,88.500008 
	C620.088806,65.935860 620.088806,43.371719 620.088806,20.879404 
	C611.850037,20.879404 604.389893,20.879404 596.368896,20.879404 
	C596.368896,35.001591 596.368896,48.897182 596.368896,62.865978 
	C587.598206,62.865978 579.398132,62.865978 570.890381,62.865978 
	C570.890381,48.628300 570.890381,34.742458 570.890381,20.936045 
	C563.115784,20.936045 555.700989,20.936045 548.045410,20.936045 
	C548.045410,55.969872 548.045410,90.706459 548.045410,125.500458 
	C555.785889,125.500458 563.316528,125.500458 571.343018,125.500458 
	C571.343018,109.639694 571.343018,94.227013 571.343018,78.729790 
	C579.901855,78.729790 587.949463,78.729790 596.437378,78.729790 
	C596.437378,94.497879 596.437378,109.904228 596.437378,125.563721 
	C604.451355,125.563721 612.018311,125.563721 620.088867,125.563721 
	C620.088867,113.409538 620.088867,101.454773 620.088806,88.500008 
M307.674225,137.423767 
	C308.416382,135.704803 309.450714,134.050308 309.846924,132.254990 
	C311.131073,126.435928 312.181244,120.565224 313.392151,114.351974 
	C322.235229,113.831665 330.970764,113.317688 339.869934,112.794075 
	C341.378235,120.354584 342.796631,127.464233 344.258850,134.793762 
	C352.032806,134.257874 359.425659,133.748260 367.422760,133.196991 
	C359.562103,95.372589 351.817749,58.107719 344.129395,21.112419 
	C333.050873,21.112419 322.776917,21.112419 312.398102,21.112419 
	C304.027588,60.442272 295.716553,99.492630 287.295776,139.058533 
	C294.252045,138.532211 300.533417,138.056961 307.674225,137.423767 
M820.036804,112.420341 
	C813.315735,81.970039 806.594666,51.519730 799.860535,21.010269 
	C789.191040,21.010269 778.919312,21.010269 768.340881,21.010269 
	C760.291016,56.992699 752.271912,92.837425 744.139526,129.188339 
	C751.622864,129.546783 758.561462,129.879120 765.853821,130.228409 
	C767.356812,123.002510 768.792236,116.101524 770.284363,108.928131 
	C779.275513,109.379883 788.009766,109.818741 796.696289,110.255188 
	C798.292725,117.787956 799.798279,124.891861 801.345886,132.194077 
	C809.082031,132.649658 816.497070,133.086334 824.682800,133.568390 
	C823.095947,126.424156 821.632751,119.836555 820.036804,112.420341 
M707.143982,19.154243 
	C701.834717,19.453526 696.470093,19.368292 691.226624,20.124052 
	C675.383728,22.407532 667.000732,32.765720 668.010559,48.373974 
	C668.416382,54.646336 670.963501,60.191631 675.644714,64.130806 
	C683.896973,71.075096 692.905151,77.128548 701.071655,84.164520 
	C705.619324,88.082603 710.363220,92.652687 712.801270,97.949585 
	C717.364990,107.864418 710.866211,115.185432 700.033508,113.513687 
	C692.284058,112.317772 689.831543,109.413506 689.868164,101.484886 
	C689.876404,99.707092 689.869385,97.929237 689.869385,95.690125 
	C682.210754,95.690125 675.121521,95.690125 668.025879,95.691414 
	C665.105591,109.352875 671.541077,121.323509 684.458008,125.930099 
	C694.399231,129.475449 704.738403,130.292511 714.949402,128.041016 
	C720.280334,126.865555 725.972839,124.675224 730.107666,121.256737 
	C740.157104,112.948410 740.373169,92.530998 730.148132,82.910461 
	C721.854004,75.106651 711.943359,69.047501 703.086365,61.802971 
	C699.184021,58.611095 695.429077,54.814320 692.846313,50.542919 
	C689.721924,45.375690 691.224670,37.692524 695.519165,36.454082 
	C700.006287,35.160099 705.373840,35.028309 709.876465,36.212948 
	C714.341614,37.387711 714.857849,42.333763 714.824402,46.687775 
	C714.814697,47.948296 715.045410,49.210663 715.200012,50.829391 
	C718.994080,50.829391 722.468872,50.829391 725.943665,50.829391 
	C729.392395,50.829391 732.841125,50.829391 736.173401,50.829391 
	C738.685730,37.306877 732.509766,26.148140 720.191040,21.904003 
	C716.300537,20.563591 712.108276,20.099062 707.143982,19.154243 
M1088.232910,138.192932 
	C1078.538940,137.256134 1068.845093,136.319336 1058.646362,135.333755 
	C1058.646362,96.943008 1058.646362,59.199001 1058.646362,21.278103 
	C1050.500732,21.278103 1042.940796,21.278103 1035.692017,21.278103 
	C1035.692017,64.941299 1035.692017,108.318352 1035.692017,151.947922 
	C1056.547607,154.342361 1076.817993,156.669601 1097.321777,159.023651 
	C1097.321777,152.223541 1097.321777,145.811890 1097.321777,139.351257 
	C1094.392456,138.978745 1091.759155,138.643890 1088.232910,138.192932 
M488.857971,72.499512 
	C488.857971,90.592995 488.857971,108.686478 488.857971,126.743164 
	C496.273621,126.743164 503.853485,126.743164 512.017700,126.743164 
	C512.017700,96.270546 512.017700,66.237152 512.017700,35.720364 
	C520.517456,35.720364 528.430725,35.720364 536.453003,35.720364 
	C536.453003,30.490400 536.453003,25.754814 536.453003,21.066494 
	C512.236572,21.066494 488.347382,21.066494 464.319519,21.066494 
	C464.319519,26.238298 464.319519,30.981394 464.319519,36.158195 
	C472.650696,36.158195 480.720306,36.158195 488.905426,36.158195 
	C488.905426,48.229622 488.905426,59.865036 488.857971,72.499512 
z"/>
<path fill="#E50F22" opacity="1.000000" stroke="none" 
	d="
M225.609329,144.688751 
	C222.518631,144.903870 219.882187,145.075027 216.747192,145.278564 
	C211.407349,114.986588 206.111404,84.943581 200.815460,54.900581 
	C200.469986,54.911537 200.124496,54.922493 199.779022,54.933449 
	C199.779022,85.478134 199.779022,116.022812 199.779022,147.089554 
	C192.529449,147.847290 186.019043,148.527771 179.476181,149.211639 
	C179.476181,106.344780 179.476181,63.935406 179.476181,21.261906 
	C190.888062,21.261906 201.824310,21.261906 213.210831,21.261906 
	C217.844879,49.720589 222.486328,78.224777 227.127792,106.728966 
	C227.455597,106.749512 227.783386,106.770058 228.111191,106.790604 
	C233.078400,78.359657 238.045609,49.928719 243.061935,21.216703 
	C254.227554,21.216703 265.310852,21.216703 276.338715,21.216703 
	C276.338715,60.653362 276.338715,100.178352 276.338715,139.940796 
	C268.564484,140.658203 261.506042,141.309570 254.108749,141.992203 
	C254.108749,113.251862 254.108749,84.850800 254.108749,56.449745 
	C253.791733,56.400272 253.474731,56.350803 253.157715,56.301334 
	C251.471008,64.822388 249.744858,73.335854 248.105637,81.866035 
	C244.467636,100.797516 240.690079,119.705658 237.400955,138.698059 
	C236.658813,142.983307 235.018295,144.367477 231.017838,144.095978 
	C229.386337,143.985260 227.716156,144.444763 225.609329,144.688751 
z"/>
<path fill="#E50F22" opacity="1.000000" stroke="none" 
	d="
M890.066895,72.038887 
	C893.054688,54.782299 895.996399,37.956047 898.945618,21.086910 
	C910.159241,21.086910 920.943420,21.086910 932.364990,21.086910 
	C932.364990,61.302162 932.364990,101.344978 932.364990,141.855576 
	C925.565369,141.257294 918.521973,140.637558 910.655029,139.945358 
	C910.655029,111.150139 910.655029,82.439018 910.655029,53.727901 
	C910.226379,53.701431 909.797791,53.674961 909.369141,53.648487 
	C904.132751,81.679123 898.896301,109.709755 893.514221,138.520432 
	C887.410278,138.040634 881.337402,137.693146 875.314758,136.942795 
	C874.460999,136.836395 873.441650,134.852356 873.189331,133.598465 
	C868.075562,108.181580 863.063843,82.744156 858.027222,57.311726 
	C857.649597,55.404938 857.238098,53.504848 856.109375,51.678467 
	C856.109375,79.594482 856.109375,107.510506 856.109375,135.746078 
	C849.292480,135.287521 842.881226,134.856262 835.856750,134.383759 
	C835.856750,96.551247 835.856750,59.012348 835.856750,21.133581 
	C846.412964,21.133581 857.320068,21.133581 868.782104,21.133581 
	C873.789062,47.995296 878.815247,74.960144 883.841431,101.924995 
	C884.192078,101.899078 884.542725,101.873154 884.893372,101.847237 
	C886.602539,92.054565 888.311646,82.261894 890.066895,72.038887 
z"/>
<path fill="#E50F21" opacity="1.000000" stroke="none" 
	d="
M1128.440674,140.635895 
	C1127.289429,147.940399 1126.249878,154.836197 1125.113647,162.372742 
	C1117.866943,161.492691 1110.867920,160.642715 1103.366211,159.731689 
	C1111.371094,113.343498 1119.298706,67.403160 1127.250122,21.325029 
	C1137.903564,21.325029 1148.185547,21.325029 1159.073120,21.325029 
	C1167.117798,70.713478 1175.168701,120.139809 1183.339233,170.300995 
	C1175.281006,169.182632 1167.939453,168.163727 1160.003662,167.062378 
	C1158.593628,157.614517 1157.180298,148.144821 1155.684814,138.124466 
	C1147.130249,137.187714 1138.435181,136.235580 1129.448364,135.251495 
	C1129.127930,137.030930 1128.840088,138.629044 1128.440674,140.635895 
M1133.919067,103.278809 
	C1133.311646,107.482758 1132.704224,111.686699 1132.057495,116.163155 
	C1139.321777,116.790771 1146.030151,117.370361 1152.946899,117.967957 
	C1149.499023,94.361404 1146.143799,71.389206 1142.788574,48.417007 
	C1142.467285,48.391872 1142.145874,48.366737 1141.824585,48.341602 
	C1139.208740,66.359711 1136.593018,84.377815 1133.919067,103.278809 
z"/>
<path fill="#E51022" opacity="1.000000" stroke="none" 
	d="
M162.552322,120.488281 
	C160.515869,147.922089 135.386337,164.464386 109.556374,155.620209 
	C98.297821,151.765305 93.369133,142.594986 93.235695,131.655930 
	C92.788872,95.026283 93.066147,58.387806 93.066147,21.399176 
	C100.944008,21.399176 108.513931,21.399176 116.780922,21.399176 
	C116.780922,27.075586 116.812820,32.845642 116.775520,38.615253 
	C116.595680,66.433548 116.396828,94.251717 116.206543,122.069939 
	C116.198563,123.236244 116.173248,124.403946 116.215691,125.568825 
	C116.519455,133.905380 119.594978,137.672134 126.170647,137.788467 
	C134.289566,137.932098 139.693649,133.225235 139.906586,125.215927 
	C140.189911,114.558853 140.100204,103.890976 140.110168,93.227684 
	C140.132416,69.410576 140.117111,45.593433 140.117111,21.386652 
	C148.000854,21.386652 155.204880,21.386652 162.602722,21.386652 
	C162.602722,54.192890 162.602722,87.112267 162.552322,120.488281 
z"/>
<path fill="#E50F21" opacity="1.000000" stroke="none" 
	d="
M400.088593,68.003616 
	C400.088593,89.292244 400.088593,110.081696 400.088593,131.295242 
	C392.984314,131.674561 386.229919,132.035187 379.544678,132.392136 
	C379.544678,95.163887 379.544678,58.270439 379.544678,20.802639 
	C389.103394,20.802639 398.045166,20.675606 406.973267,20.967888 
	C408.055389,21.003313 409.526489,23.136183 410.035614,24.573803 
	C416.409363,42.571056 422.635925,60.620426 428.909790,78.653099 
	C429.545349,80.479782 430.243195,82.284782 431.830231,83.953484 
	C431.830231,63.132267 431.830231,42.311050 431.830231,21.145720 
	C439.056030,21.145720 445.769531,21.145720 452.506165,21.145720 
	C452.506165,56.888130 452.506165,92.605850 452.506165,128.644577 
	C444.269989,129.041397 436.509766,129.415283 428.365234,129.807693 
	C419.199585,103.876915 410.052063,77.997437 400.904541,52.117954 
	C400.632568,52.173649 400.360565,52.229343 400.088593,52.285038 
	C400.088593,57.358173 400.088593,62.431305 400.088593,68.003616 
z"/>
<path fill="#E50F21" opacity="1.000000" stroke="none" 
	d="
M38.971252,102.015152 
	C34.116257,97.683678 29.287500,93.823746 24.986237,89.445580 
	C11.463333,75.680893 8.322712,59.135433 13.432109,41.020790 
	C17.937302,25.048269 33.391113,16.652994 51.879967,19.373035 
	C70.340210,22.088865 79.721046,32.743435 80.079346,51.431000 
	C80.130142,54.080379 80.086372,56.731575 80.086372,59.943401 
	C72.862061,60.320976 65.812691,60.689411 57.994205,61.098042 
	C57.994205,57.790592 58.114700,54.857582 57.971165,51.937550 
	C57.572620,43.829865 53.648224,39.782444 46.452351,39.893291 
	C39.238152,40.004421 35.342499,44.251019 34.869633,52.045330 
	C34.337875,60.810291 37.488335,68.148300 43.674469,73.992691 
	C50.313927,80.265366 57.473446,85.985100 64.354111,92.005447 
	C79.342346,105.119614 83.253571,121.773384 78.716927,140.462814 
	C74.967026,155.911072 63.692635,163.722916 48.732822,166.905594 
	C47.107887,167.251297 45.455215,167.477219 43.808151,167.706619 
	C25.982811,170.189133 14.758302,162.282806 11.745991,144.573807 
	C10.755739,138.752258 10.990103,132.722382 10.646644,126.462761 
	C18.335316,125.660370 25.373407,124.925873 32.989037,124.131104 
	C32.989037,128.070953 32.902279,131.700531 33.007488,135.324554 
	C33.212914,142.400787 36.108414,146.270828 41.535526,146.929962 
	C48.186386,147.737717 54.343506,144.185928 55.980141,138.070190 
	C58.625114,128.186539 56.472500,119.228073 49.512402,111.703300 
	C46.362591,108.297958 42.679836,105.385574 38.971252,102.015152 
z"/>
<path fill="#E50F21" opacity="1.000000" stroke="none" 
	d="
M953.531250,94.482826 
	C958.330139,69.797676 963.016052,45.526207 967.719055,21.166374 
	C978.550171,21.166374 988.992126,21.166374 999.766418,21.166374 
	C1007.998413,64.230797 1016.211365,107.195877 1024.520142,150.661819 
	C1017.496643,150.000427 1011.269897,149.264236 1005.021545,148.889801 
	C1001.966919,148.706772 1000.713013,147.400162 1000.300293,144.487045 
	C999.301025,137.433868 998.095520,130.409912 996.934631,123.132317 
	C988.038086,122.401886 979.319641,121.686073 970.354004,120.949966 
	C968.856201,129.120712 967.431519,136.892700 965.959839,144.921280 
	C958.657043,144.219772 951.748535,143.556137 944.275085,142.838226 
	C947.356201,126.682709 950.387268,110.789612 953.531250,94.482826 
M984.289368,50.216145 
	C984.021484,48.516979 983.753601,46.817810 983.485779,45.118645 
	C983.121216,45.146336 982.756714,45.174030 982.392212,45.201721 
	C979.223145,64.705338 976.054077,84.208954 972.810852,104.168991 
	C979.940552,104.590500 986.486328,104.977486 993.564453,105.395950 
	C990.454224,86.761581 987.473267,68.902046 984.289368,50.216145 
z"/>
<path fill="#E50F21" opacity="1.000000" stroke="none" 
	d="
M620.088867,89.000015 
	C620.088867,101.454773 620.088867,113.409538 620.088867,125.563721 
	C612.018311,125.563721 604.451355,125.563721 596.437378,125.563721 
	C596.437378,109.904228 596.437378,94.497879 596.437378,78.729790 
	C587.949463,78.729790 579.901855,78.729790 571.343018,78.729790 
	C571.343018,94.227013 571.343018,109.639694 571.343018,125.500458 
	C563.316528,125.500458 555.785889,125.500458 548.045410,125.500458 
	C548.045410,90.706459 548.045410,55.969872 548.045410,20.936045 
	C555.700989,20.936045 563.115784,20.936045 570.890381,20.936045 
	C570.890381,34.742458 570.890381,48.628300 570.890381,62.865978 
	C579.398132,62.865978 587.598206,62.865978 596.368896,62.865978 
	C596.368896,48.897182 596.368896,35.001591 596.368896,20.879404 
	C604.389893,20.879404 611.850037,20.879404 620.088806,20.879404 
	C620.088806,43.371719 620.088806,65.935860 620.088867,89.000015 
z"/>
<path fill="#E50F21" opacity="1.000000" stroke="none" 
	d="
M307.244507,137.502731 
	C300.533417,138.056961 294.252045,138.532211 287.295776,139.058533 
	C295.716553,99.492630 304.027588,60.442272 312.398102,21.112419 
	C322.776917,21.112419 333.050873,21.112419 344.129395,21.112419 
	C351.817749,58.107719 359.562103,95.372589 367.422760,133.196991 
	C359.425659,133.748260 352.032806,134.257874 344.258850,134.793762 
	C342.796631,127.464233 341.378235,120.354584 339.869934,112.794075 
	C330.970764,113.317688 322.235229,113.831665 313.392151,114.351974 
	C312.181244,120.565224 311.131073,126.435928 309.846924,132.254990 
	C309.450714,134.050308 308.416382,135.704803 307.244507,137.502731 
M335.255768,86.141266 
	C332.668732,71.551765 330.081696,56.962261 327.494659,42.372761 
	C327.130432,42.391945 326.766205,42.411129 326.401978,42.430313 
	C323.090118,60.846539 319.778259,79.262764 316.353638,98.306046 
	C323.698608,97.957680 330.238739,97.647484 337.264862,97.314247 
	C336.591339,93.433792 336.030609,90.203232 335.255768,86.141266 
z"/>
<path fill="#E50F21" opacity="1.000000" stroke="none" 
	d="
M820.103149,112.834656 
	C821.632751,119.836555 823.095947,126.424156 824.682800,133.568390 
	C816.497070,133.086334 809.082031,132.649658 801.345886,132.194077 
	C799.798279,124.891861 798.292725,117.787956 796.696289,110.255188 
	C788.009766,109.818741 779.275513,109.379883 770.284363,108.928131 
	C768.792236,116.101524 767.356812,123.002510 765.853821,130.228409 
	C758.561462,129.879120 751.622864,129.546783 744.139526,129.188339 
	C752.271912,92.837425 760.291016,56.992699 768.340881,21.010269 
	C778.919312,21.010269 789.191040,21.010269 799.860535,21.010269 
	C806.594666,51.519730 813.315735,81.970039 820.103149,112.834656 
M792.387817,87.019508 
	C789.445801,71.997734 786.503784,56.975960 783.561768,41.954185 
	C783.232300,41.948143 782.902832,41.942101 782.573364,41.936054 
	C779.373840,59.140228 776.174316,76.344406 772.897217,93.965752 
	C780.026550,94.292900 786.843994,94.605736 793.891418,94.929131 
	C793.387756,92.076637 793.012756,89.953178 792.387817,87.019508 
z"/>
<path fill="#E61022" opacity="1.000000" stroke="none" 
	d="
M707.598999,19.193962 
	C712.108276,20.099062 716.300537,20.563591 720.191040,21.904003 
	C732.509766,26.148140 738.685730,37.306877 736.173401,50.829391 
	C732.841125,50.829391 729.392395,50.829391 725.943665,50.829391 
	C722.468872,50.829391 718.994080,50.829391 715.200012,50.829391 
	C715.045410,49.210663 714.814697,47.948296 714.824402,46.687775 
	C714.857849,42.333763 714.341614,37.387711 709.876465,36.212948 
	C705.373840,35.028309 700.006287,35.160099 695.519165,36.454082 
	C691.224670,37.692524 689.721924,45.375690 692.846313,50.542919 
	C695.429077,54.814320 699.184021,58.611095 703.086365,61.802971 
	C711.943359,69.047501 721.854004,75.106651 730.148132,82.910461 
	C740.373169,92.530998 740.157104,112.948410 730.107666,121.256737 
	C725.972839,124.675224 720.280334,126.865555 714.949402,128.041016 
	C704.738403,130.292511 694.399231,129.475449 684.458008,125.930099 
	C671.541077,121.323509 665.105591,109.352875 668.029114,95.690765 
	C675.121521,95.690125 682.210754,95.690125 689.869385,95.690125 
	C689.869385,97.929237 689.876404,99.707092 689.868164,101.484886 
	C689.831543,109.413506 692.284058,112.317772 700.033508,113.513687 
	C710.866211,115.185432 717.364990,107.864418 712.801270,97.949585 
	C710.363220,92.652687 705.619324,88.082603 701.071655,84.164520 
	C692.905151,77.128548 683.896973,71.075096 675.644714,64.130806 
	C670.963501,60.191631 668.416382,54.646336 668.010559,48.373974 
	C667.000732,32.765720 675.383728,22.407532 691.226624,20.124052 
	C696.470093,19.368292 701.834717,19.453526 707.598999,19.193962 
z"/>
<path fill="#E61023" opacity="1.000000" stroke="none" 
	d="
M1088.679443,138.250977 
	C1091.759155,138.643890 1094.392456,138.978745 1097.321777,139.351257 
	C1097.321777,145.811890 1097.321777,152.223541 1097.321777,159.023651 
	C1076.817993,156.669601 1056.547607,154.342361 1035.692017,151.947922 
	C1035.692017,108.318352 1035.692017,64.941299 1035.692017,21.278103 
	C1042.940796,21.278103 1050.500732,21.278103 1058.646362,21.278103 
	C1058.646362,59.199001 1058.646362,96.943008 1058.646362,135.333755 
	C1068.845093,136.319336 1078.538940,137.256134 1088.679443,138.250977 
z"/>
<path fill="#E50E21" opacity="1.000000" stroke="none" 
	d="
M488.881714,71.999985 
	C488.905426,59.865036 488.905426,48.229622 488.905426,36.158195 
	C480.720306,36.158195 472.650696,36.158195 464.319519,36.158195 
	C464.319519,30.981394 464.319519,26.238298 464.319519,21.066494 
	C488.347382,21.066494 512.236572,21.066494 536.453003,21.066494 
	C536.453003,25.754814 536.453003,30.490400 536.453003,35.720364 
	C528.430725,35.720364 520.517456,35.720364 512.017700,35.720364 
	C512.017700,66.237152 512.017700,96.270546 512.017700,126.743164 
	C503.853485,126.743164 496.273621,126.743164 488.857971,126.743164 
	C488.857971,108.686478 488.857971,90.592995 488.881714,71.999985 
z"/>
<path fill="#FEF8F9" opacity="1.000000" stroke="none" 
	d="
M1133.948242,102.837372 
	C1136.593018,84.377815 1139.208740,66.359711 1141.824585,48.341602 
	C1142.145874,48.366737 1142.467285,48.391872 1142.788574,48.417007 
	C1146.143799,71.389206 1149.499023,94.361404 1152.946899,117.967957 
	C1146.030151,117.370361 1139.321777,116.790771 1132.057495,116.163155 
	C1132.704224,111.686699 1133.311646,107.482758 1133.948242,102.837372 
z"/>
<path fill="#FEF9F9" opacity="1.000000" stroke="none" 
	d="
M984.390869,50.629333 
	C987.473267,68.902046 990.454224,86.761581 993.564453,105.395950 
	C986.486328,104.977486 979.940552,104.590500 972.810852,104.168991 
	C976.054077,84.208954 979.223145,64.705338 982.392212,45.201721 
	C982.756714,45.174030 983.121216,45.146336 983.485779,45.118645 
	C983.753601,46.817810 984.021484,48.516979 984.390869,50.629333 
z"/>
<path fill="#FEF8F9" opacity="1.000000" stroke="none" 
	d="
M335.362823,86.556969 
	C336.030609,90.203232 336.591339,93.433792 337.264862,97.314247 
	C330.238739,97.647484 323.698608,97.957680 316.353638,98.306046 
	C319.778259,79.262764 323.090118,60.846539 326.401978,42.430313 
	C326.766205,42.411129 327.130432,42.391945 327.494659,42.372761 
	C330.081696,56.962261 332.668732,71.551765 335.362823,86.556969 
z"/>
<path fill="#FEF8F8" opacity="1.000000" stroke="none" 
	d="
M792.512817,87.424614 
	C793.012756,89.953178 793.387756,92.076637 793.891418,94.929131 
	C786.843994,94.605736 780.026550,94.292900 772.897217,93.965752 
	C776.174316,76.344406 779.373840,59.140228 782.573364,41.936054 
	C782.902832,41.942101 783.232300,41.948143 783.561768,41.954185 
	C786.503784,56.975960 789.445801,71.997734 792.512817,87.424614 
z"/>
</svg>