<?xml version="1.0" encoding="utf-8"?>
<svg xmlns="http://www.w3.org/2000/svg" viewBox="-216.009 158.2501 1172.6931 151.4339" width="1172.69px" height="151.434px" preserveAspectRatio="none"><g id="object-0" transform="matrix(1, 0, 0, 1, -5.684341886080802e-14, -8.881784197001252e-16)"><path fill="#E50F22" opacity="1.000000" stroke="none" d="M -1.046 284.072 C -4.137 284.287 -6.773 284.458 -9.908 284.662 C -15.248 254.37 -20.544 224.327 -25.84 194.284 C -26.185 194.295 -26.531 194.305 -26.876 194.316 C -26.876 224.861 -26.876 255.406 -26.876 286.473 C -34.126 287.23 -40.636 287.911 -47.179 288.595 C -47.179 245.728 -47.179 203.318 -47.179 160.645 C -35.767 160.645 -24.831 160.645 -13.445 160.645 C -8.811 189.104 -4.169 217.608 0.472 246.112 C 0.8 246.133 1.128 246.153 1.456 246.174 C 6.423 217.743 11.39 189.312 16.406 160.6 C 27.572 160.6 38.655 160.6 49.683 160.6 C 49.683 200.036 49.683 239.561 49.683 279.324 C 41.909 280.041 34.851 280.693 27.453 281.375 C 27.453 252.635 27.453 224.234 27.453 195.833 C 27.136 195.783 26.819 195.734 26.502 195.684 C 24.816 204.205 23.089 212.719 21.45 221.249 C 17.812 240.181 14.035 259.089 10.746 278.081 C 10.003 282.366 8.363 283.75 4.362 283.479 C 2.731 283.368 1.061 283.828 -1.046 284.072 Z"/><path fill="#E50F22" opacity="1.000000" stroke="none" d="M 663.411 211.422 C 666.399 194.165 669.341 177.339 672.29 160.47 C 683.504 160.47 694.288 160.47 705.71 160.47 C 705.71 200.685 705.71 240.728 705.71 281.239 C 698.91 280.64 691.867 280.021 684 279.328 C 684 250.533 684 221.822 684 193.111 C 683.571 193.084 683.142 193.058 682.714 193.031 C 677.477 221.062 672.241 249.093 666.859 277.903 C 660.755 277.424 654.682 277.076 648.659 276.326 C 647.806 276.219 646.786 274.235 646.534 272.981 C 641.42 247.565 636.408 222.127 631.372 196.695 C 630.994 194.788 630.583 192.888 629.454 191.061 C 629.454 218.977 629.454 246.894 629.454 275.129 C 622.637 274.671 616.226 274.239 609.201 273.767 C 609.201 235.934 609.201 198.395 609.201 160.517 C 619.758 160.517 630.665 160.517 642.127 160.517 C 647.134 187.378 652.16 214.343 657.186 241.308 C 657.537 241.282 657.887 241.256 658.238 241.23 C 659.947 231.438 661.656 221.645 663.411 211.422 Z"/><path fill="#E50F21" opacity="1.000000" stroke="none" d="M 901.785 280.019 C 900.634 287.323 899.594 294.219 898.458 301.756 C 891.211 300.876 884.212 300.026 876.711 299.115 C 884.716 252.726 892.643 206.786 900.595 160.708 C 911.248 160.708 921.53 160.708 932.418 160.708 C 940.462 210.096 948.513 259.523 956.684 309.684 C 948.626 308.566 941.284 307.547 933.348 306.445 C 931.938 296.998 930.525 287.528 929.029 277.507 C 920.475 276.571 911.78 275.619 902.793 274.634 C 902.472 276.414 902.185 278.012 901.785 280.019 M 907.264 242.662 C 906.656 246.866 906.049 251.07 905.402 255.546 C 912.666 256.174 919.375 256.753 926.291 257.351 C 922.844 233.744 919.488 210.772 916.133 187.8 C 915.812 187.775 915.49 187.75 915.169 187.725 C 912.553 205.743 909.938 223.761 907.264 242.662 Z"/><path fill="#E51022" opacity="1.000000" stroke="none" d="M -64.103 259.871 C -66.14 287.305 -91.269 303.847 -117.099 295.003 C -128.358 291.148 -133.286 281.978 -133.42 271.039 C -133.867 234.409 -133.589 197.771 -133.589 160.782 C -125.711 160.782 -118.142 160.782 -109.875 160.782 C -109.875 166.459 -109.843 172.229 -109.88 177.998 C -110.06 205.817 -110.259 233.635 -110.449 261.453 C -110.457 262.619 -110.482 263.787 -110.44 264.952 C -110.136 273.288 -107.06 277.055 -100.485 277.171 C -92.366 277.315 -86.962 272.608 -86.749 264.599 C -86.466 253.942 -86.555 243.274 -86.545 232.611 C -86.523 208.794 -86.538 184.976 -86.538 160.77 C -78.655 160.77 -71.451 160.77 -64.053 160.77 C -64.053 193.576 -64.053 226.495 -64.103 259.871 Z"/><path fill="#E50F21" opacity="1.000000" stroke="none" d="M 173.433 207.387 C 173.433 228.675 173.433 249.465 173.433 270.678 C 166.329 271.058 159.574 271.418 152.889 271.775 C 152.889 234.547 152.889 197.653 152.889 160.186 C 162.448 160.186 171.39 160.059 180.318 160.351 C 181.4 160.386 182.871 162.519 183.38 163.957 C 189.754 181.954 195.98 200.003 202.254 218.036 C 202.89 219.863 203.588 221.668 205.175 223.336 C 205.175 202.515 205.175 181.694 205.175 160.529 C 212.401 160.529 219.114 160.529 225.851 160.529 C 225.851 196.271 225.851 231.989 225.851 268.028 C 217.615 268.424 209.854 268.798 201.71 269.191 C 192.544 243.26 183.397 217.38 174.249 191.501 C 173.977 191.557 173.705 191.612 173.433 191.668 C 173.433 196.741 173.433 201.814 173.433 207.387 Z"/><path fill="#E50F21" opacity="1.000000" stroke="none" d="M -187.684 241.398 C -192.539 237.067 -197.368 233.207 -201.669 228.829 C -215.192 215.064 -218.333 198.518 -213.223 180.404 C -208.718 164.431 -193.264 156.036 -174.775 158.756 C -156.315 161.472 -146.934 172.126 -146.576 190.814 C -146.525 193.463 -146.569 196.115 -146.569 199.326 C -153.793 199.704 -160.843 200.072 -168.661 200.481 C -168.661 197.174 -168.541 194.241 -168.684 191.321 C -169.083 183.213 -173.007 179.165 -180.203 179.276 C -187.417 179.387 -191.313 183.634 -191.786 191.428 C -192.318 200.193 -189.167 207.531 -182.981 213.376 C -176.342 219.648 -169.182 225.368 -162.301 231.388 C -147.313 244.503 -143.402 261.156 -147.939 279.846 C -151.688 295.294 -162.963 303.106 -177.923 306.289 C -179.548 306.634 -181.2 306.86 -182.847 307.09 C -200.673 309.572 -211.897 301.666 -214.909 283.957 C -215.9 278.135 -215.665 272.105 -216.009 265.846 C -208.32 265.043 -201.282 264.309 -193.666 263.514 C -193.666 267.454 -193.753 271.084 -193.648 274.708 C -193.443 281.784 -190.547 285.654 -185.12 286.313 C -178.469 287.121 -172.312 283.569 -170.675 277.453 C -168.03 267.57 -170.183 258.611 -177.143 251.086 C -180.293 247.681 -183.976 244.769 -187.684 241.398 Z"/><path fill="#E50F21" opacity="1.000000" stroke="none" d="M 726.876 233.866 C 731.675 209.181 736.361 184.909 741.064 160.549 C 751.895 160.549 762.337 160.549 773.111 160.549 C 781.343 203.614 789.556 246.579 797.865 290.045 C 790.841 289.383 784.614 288.647 778.366 288.273 C 775.311 288.09 774.058 286.783 773.645 283.87 C 772.646 276.817 771.44 269.793 770.279 262.515 C 761.383 261.785 752.664 261.069 743.699 260.333 C 742.201 268.504 740.776 276.276 739.304 284.304 C 732.002 283.603 725.093 282.939 717.62 282.221 C 720.701 266.066 723.732 250.173 726.876 233.866 M 757.634 189.599 C 757.366 187.9 757.098 186.201 756.83 184.502 C 756.466 184.529 756.101 184.557 755.737 184.585 C 752.568 204.088 749.399 223.592 746.155 243.552 C 753.285 243.974 759.831 244.36 766.909 244.779 C 763.799 226.145 760.818 208.285 757.634 189.599 Z"/><path fill="#E50F21" opacity="1.000000" stroke="none" d="M 393.433 228.383 C 393.433 240.838 393.433 252.793 393.433 264.947 C 385.363 264.947 377.796 264.947 369.782 264.947 C 369.782 249.287 369.782 233.881 369.782 218.113 C 361.294 218.113 353.246 218.113 344.688 218.113 C 344.688 233.61 344.688 249.023 344.688 264.883 C 336.661 264.883 329.13 264.883 321.39 264.883 C 321.39 230.089 321.39 195.353 321.39 160.319 C 329.046 160.319 336.46 160.319 344.235 160.319 C 344.235 174.125 344.235 188.011 344.235 202.249 C 352.743 202.249 360.943 202.249 369.713 202.249 C 369.713 188.28 369.713 174.385 369.713 160.262 C 377.734 160.262 385.195 160.262 393.433 160.262 C 393.433 182.755 393.433 205.319 393.433 228.383 Z"/><path fill="#E50F21" opacity="1.000000" stroke="none" d="M 80.589 276.886 C 73.878 277.44 67.597 277.915 60.64 278.442 C 69.061 238.876 77.372 199.825 85.743 160.495 C 96.121 160.495 106.395 160.495 117.474 160.495 C 125.162 197.491 132.907 234.756 140.767 272.58 C 132.77 273.131 125.377 273.641 117.603 274.177 C 116.141 266.847 114.723 259.738 113.214 252.177 C 104.315 252.701 95.58 253.215 86.737 253.735 C 85.526 259.948 84.476 265.819 83.191 271.638 C 82.795 273.433 81.761 275.088 80.589 276.886 M 108.6 225.524 C 106.013 210.935 103.426 196.345 100.839 181.756 C 100.475 181.775 100.111 181.794 99.747 181.813 C 96.435 200.23 93.123 218.646 89.698 237.689 C 97.043 237.341 103.583 237.03 110.609 236.697 C 109.936 232.817 109.375 229.586 108.6 225.524 Z"/><path fill="#E50F21" opacity="1.000000" stroke="none" d="M 593.448 252.218 C 594.977 259.22 596.441 265.807 598.027 272.951 C 589.842 272.469 582.427 272.033 574.69 271.577 C 573.143 264.275 571.637 257.171 570.041 249.638 C 561.354 249.202 552.62 248.763 543.629 248.311 C 542.137 255.485 540.701 262.386 539.198 269.611 C 531.906 269.262 524.967 268.93 517.484 268.571 C 525.616 232.22 533.636 196.376 541.685 160.393 C 552.264 160.393 562.536 160.393 573.205 160.393 C 579.939 190.903 586.66 221.353 593.448 252.218 M 565.732 226.403 C 562.79 211.381 559.848 196.359 556.906 181.337 C 556.577 181.331 556.247 181.325 555.918 181.319 C 552.718 198.523 549.519 215.727 546.242 233.349 C 553.371 233.676 560.189 233.989 567.236 234.312 C 566.732 231.46 566.357 229.336 565.732 226.403 Z"/><path fill="#E61022" opacity="1.000000" stroke="none" d="M 480.944 158.577 C 485.453 159.482 489.645 159.947 493.536 161.287 C 505.854 165.531 512.03 176.69 509.518 190.212 C 506.186 190.212 502.737 190.212 499.288 190.212 C 495.813 190.212 492.339 190.212 488.545 190.212 C 488.39 188.594 488.159 187.331 488.169 186.071 C 488.202 181.717 487.686 176.771 483.221 175.596 C 478.718 174.411 473.351 174.543 468.864 175.837 C 464.569 177.076 463.066 184.759 466.191 189.926 C 468.774 194.197 472.529 197.994 476.431 201.186 C 485.288 208.431 495.199 214.49 503.493 222.293 C 513.718 231.914 513.502 252.331 503.452 260.64 C 499.317 264.058 493.625 266.249 488.294 267.424 C 478.083 269.676 467.744 268.858 457.803 265.313 C 444.886 260.707 438.45 248.736 441.374 235.074 C 448.466 235.073 455.555 235.073 463.214 235.073 C 463.214 237.312 463.221 239.09 463.213 240.868 C 463.176 248.797 465.629 251.701 473.378 252.897 C 484.211 254.568 490.71 247.247 486.146 237.333 C 483.708 232.036 478.964 227.466 474.416 223.548 C 466.25 216.512 457.242 210.458 448.989 203.514 C 444.308 199.575 441.761 194.029 441.355 187.757 C 440.345 172.149 448.728 161.791 464.571 159.507 C 469.815 158.751 475.179 158.837 480.944 158.577 Z"/><path fill="#E61023" opacity="1.000000" stroke="none" d="M 862.024 277.634 C 865.104 278.027 867.737 278.362 870.666 278.734 C 870.666 285.195 870.666 291.607 870.666 298.407 C 850.163 296.053 829.892 293.725 809.037 291.331 C 809.037 247.701 809.037 204.324 809.037 160.661 C 816.285 160.661 823.845 160.661 831.991 160.661 C 831.991 198.582 831.991 236.326 831.991 274.717 C 842.19 275.702 851.883 276.639 862.024 277.634 Z"/><path fill="#E50E21" opacity="1.000000" stroke="none" d="M 262.226 211.383 C 262.25 199.248 262.25 187.613 262.25 175.541 C 254.065 175.541 245.995 175.541 237.664 175.541 C 237.664 170.364 237.664 165.621 237.664 160.449 C 261.692 160.449 285.581 160.449 309.798 160.449 C 309.798 165.138 309.798 169.873 309.798 175.103 C 301.775 175.103 293.862 175.103 285.362 175.103 C 285.362 205.62 285.362 235.654 285.362 266.126 C 277.198 266.126 269.618 266.126 262.203 266.126 C 262.203 248.069 262.203 229.976 262.226 211.383 Z"/></g></svg>